<svg xmlns="http://www.w3.org/2000/svg" width="512" height="512" viewBox="0 0 512 512" role="img" aria-label="Retention Hook Writer">
  <rect width="512" height="512" rx="112" fill="#111214"/>
  <path d="M359 118c33 0 60 27 60 60v35c0 101-82 183-183 183h-11c-73 0-132-59-132-132s59-132 132-132h44v70h-44c-34 0-62 28-62 62s28 62 62 62h11c62 0 113-51 113-113v-35c0-6 4-10 10-10h32v-50h-32z" fill="#FF4D8D"/>
  <path d="M232 169h73v70h-73c-14 0-25 11-25 25s11 25 25 25h22v70h-22c-53 0-95-42-95-95s42-95 95-95z" fill="#8BE9FF"/>
  <circle cx="356" cy="356" r="34" fill="#FFDA2E"/>
</svg>
